<svg xmlns="http://www.w3.org/2000/svg" viewBox="0 0 32 32">
  <rect width="32" height="32" rx="7" fill="#2563eb"/>
  <g transform="translate(3, 7)">
    <path d="M4 11 L6 5 Q7 3 9 3 L17 3 Q19 3 20 5 L22 11 Q24 11 25 12.5 L25 15 Q25 16 24 16 L22 16 L22 16 Q22 18 20 18 Q18 18 18 16 L8 16 Q8 18 6 18 Q4 18 4 16 L2 16 Q1 16 1 15 L1 12.5 Q2 11 4 11 Z" fill="white"/>
    <circle cx="6" cy="16" r="1.8" fill="#2563eb"/>
    <circle cx="20" cy="16" r="1.8" fill="#2563eb"/>
    <path d="M7 5.5 L9 3.5 L16.5 3.5 L19 5.5 L19 8 L7 8 Z" fill="#2563eb" opacity="0.3"/>
  </g>
</svg>
